<mxfile host="Electron" modified="2023-06-08T13:29:30.554Z" agent="Mozilla/5.0 (X11; Linux x86_64) AppleWebKit/537.36 (KHTML, like Gecko) draw.io/21.3.7 Chrome/112.0.5615.204 Electron/24.5.0 Safari/537.36" etag="XyE6oWZrwBw4bSZJJvF2" version="21.3.7" type="device">
  <diagram name="Page-1" id="Avx-Mupz1231pco3RzAv">
    <mxGraphModel dx="1133" dy="703" grid="1" gridSize="10" guides="1" tooltips="1" connect="1" arrows="1" fold="1" page="1" pageScale="1" pageWidth="850" pageHeight="1100" math="1" shadow="0">
      <root>
        <mxCell id="0" />
        <mxCell id="1" parent="0" />
        <mxCell id="XNwcV4RA-kQ3HEbMhBq7-1" value="R11" style="rounded=0;whiteSpace=wrap;html=1;fontSize=24;strokeColor=default;strokeWidth=2;" parent="1" vertex="1">
          <mxGeometry x="400" y="80" width="80" height="40" as="geometry" />
        </mxCell>
        <mxCell id="XNwcV4RA-kQ3HEbMhBq7-2" value="R12" style="rounded=0;whiteSpace=wrap;html=1;fontSize=24;strokeWidth=2;" parent="1" vertex="1">
          <mxGeometry x="400" y="240" width="80" height="40" as="geometry" />
        </mxCell>
        <mxCell id="XNwcV4RA-kQ3HEbMhBq7-3" value="" style="endArrow=none;html=1;rounded=0;exitX=0.5;exitY=0;exitDx=0;exitDy=0;entryX=0.5;entryY=1;entryDx=0;entryDy=0;" parent="1" source="XNwcV4RA-kQ3HEbMhBq7-2" target="XNwcV4RA-kQ3HEbMhBq7-1" edge="1">
          <mxGeometry width="50" height="50" relative="1" as="geometry">
            <mxPoint x="460" y="200" as="sourcePoint" />
            <mxPoint x="410" y="120" as="targetPoint" />
          </mxGeometry>
        </mxCell>
        <mxCell id="XNwcV4RA-kQ3HEbMhBq7-4" value="" style="endArrow=none;html=1;rounded=0;exitX=0.5;exitY=0;exitDx=0;exitDy=0;" parent="1" source="XNwcV4RA-kQ3HEbMhBq7-1" edge="1">
          <mxGeometry width="50" height="50" relative="1" as="geometry">
            <mxPoint x="400" y="10" as="sourcePoint" />
            <mxPoint x="440" y="40" as="targetPoint" />
          </mxGeometry>
        </mxCell>
        <mxCell id="XNwcV4RA-kQ3HEbMhBq7-5" value="" style="endArrow=none;dashed=1;html=1;dashPattern=1 3;strokeWidth=1;rounded=0;" parent="1" edge="1">
          <mxGeometry width="50" height="50" relative="1" as="geometry">
            <mxPoint x="440" y="40" as="sourcePoint" />
            <mxPoint x="440" as="targetPoint" />
          </mxGeometry>
        </mxCell>
        <mxCell id="XNwcV4RA-kQ3HEbMhBq7-7" value="eth0: 207.13.56.91/24" style="text;html=1;strokeColor=none;fillColor=none;align=left;verticalAlign=bottom;whiteSpace=wrap;rounded=0;fontSize=14;fontFamily=Courier New;" parent="1" vertex="1">
          <mxGeometry x="440" y="40" width="200" height="40" as="geometry" />
        </mxCell>
        <mxCell id="XNwcV4RA-kQ3HEbMhBq7-9" value="R13" style="rounded=0;whiteSpace=wrap;html=1;fontSize=24;strokeColor=default;strokeWidth=2;" parent="1" vertex="1">
          <mxGeometry x="200" y="360" width="80" height="40" as="geometry" />
        </mxCell>
        <mxCell id="XNwcV4RA-kQ3HEbMhBq7-10" value="R14" style="rounded=0;whiteSpace=wrap;html=1;fontSize=24;strokeColor=default;strokeWidth=2;" parent="1" vertex="1">
          <mxGeometry x="600" y="360" width="80" height="40" as="geometry" />
        </mxCell>
        <mxCell id="XNwcV4RA-kQ3HEbMhBq7-11" value="" style="endArrow=none;html=1;rounded=0;exitX=1;exitY=1;exitDx=0;exitDy=0;entryX=0;entryY=0;entryDx=0;entryDy=0;" parent="1" source="XNwcV4RA-kQ3HEbMhBq7-2" target="XNwcV4RA-kQ3HEbMhBq7-10" edge="1">
          <mxGeometry width="50" height="50" relative="1" as="geometry">
            <mxPoint x="580" y="280" as="sourcePoint" />
            <mxPoint x="640" y="320" as="targetPoint" />
          </mxGeometry>
        </mxCell>
        <mxCell id="XNwcV4RA-kQ3HEbMhBq7-12" value="" style="endArrow=none;html=1;rounded=0;entryX=0;entryY=1;entryDx=0;entryDy=0;exitX=1;exitY=0;exitDx=0;exitDy=0;" parent="1" source="XNwcV4RA-kQ3HEbMhBq7-9" target="XNwcV4RA-kQ3HEbMhBq7-2" edge="1">
          <mxGeometry width="50" height="50" relative="1" as="geometry">
            <mxPoint x="240" y="310" as="sourcePoint" />
            <mxPoint x="380" y="310" as="targetPoint" />
          </mxGeometry>
        </mxCell>
        <mxCell id="XNwcV4RA-kQ3HEbMhBq7-13" value="eth1: 209.85.127.100/24" style="text;html=1;strokeColor=none;fillColor=none;align=left;verticalAlign=top;whiteSpace=wrap;rounded=0;fontSize=14;fontFamily=Courier New;" parent="1" vertex="1">
          <mxGeometry x="440" y="120" width="200" height="40" as="geometry" />
        </mxCell>
        <mxCell id="XNwcV4RA-kQ3HEbMhBq7-14" value="eth0: 209.85.127.99/24" style="text;html=1;strokeColor=none;fillColor=none;align=left;verticalAlign=bottom;whiteSpace=wrap;rounded=0;fontSize=14;fontFamily=Courier New;" parent="1" vertex="1">
          <mxGeometry x="440" y="200" width="200" height="40" as="geometry" />
        </mxCell>
        <mxCell id="XNwcV4RA-kQ3HEbMhBq7-22" value="" style="endArrow=none;html=1;rounded=0;entryX=1;entryY=0.5;entryDx=0;entryDy=0;" parent="1" target="XNwcV4RA-kQ3HEbMhBq7-10" edge="1">
          <mxGeometry width="50" height="50" relative="1" as="geometry">
            <mxPoint x="840" y="380" as="sourcePoint" />
            <mxPoint x="800" y="300" as="targetPoint" />
          </mxGeometry>
        </mxCell>
        <mxCell id="XNwcV4RA-kQ3HEbMhBq7-23" value="" style="endArrow=none;dashed=1;html=1;dashPattern=1 3;strokeWidth=1;rounded=0;" parent="1" edge="1">
          <mxGeometry width="50" height="50" relative="1" as="geometry">
            <mxPoint x="840" y="380" as="sourcePoint" />
            <mxPoint x="880" y="380" as="targetPoint" />
          </mxGeometry>
        </mxCell>
        <mxCell id="XNwcV4RA-kQ3HEbMhBq7-25" value="eth0:&amp;nbsp;64.157.174.44&lt;span style=&quot;background-color: initial;&quot;&gt;/8&lt;/span&gt;" style="text;html=1;strokeColor=none;fillColor=none;align=right;verticalAlign=bottom;whiteSpace=wrap;rounded=0;fontSize=14;fontFamily=Courier New;" parent="1" vertex="1">
          <mxGeometry x="80" y="320" width="200" height="40" as="geometry" />
        </mxCell>
        <mxCell id="XNwcV4RA-kQ3HEbMhBq7-26" value="" style="endArrow=none;html=1;rounded=0;entryX=0;entryY=0.5;entryDx=0;entryDy=0;" parent="1" target="XNwcV4RA-kQ3HEbMhBq7-9" edge="1">
          <mxGeometry width="50" height="50" relative="1" as="geometry">
            <mxPoint x="40" y="380" as="sourcePoint" />
            <mxPoint x="40" y="419.58" as="targetPoint" />
          </mxGeometry>
        </mxCell>
        <mxCell id="XNwcV4RA-kQ3HEbMhBq7-27" value="" style="endArrow=none;dashed=1;html=1;dashPattern=1 3;strokeWidth=1;rounded=0;" parent="1" edge="1">
          <mxGeometry width="50" height="50" relative="1" as="geometry">
            <mxPoint x="40" y="380" as="sourcePoint" />
            <mxPoint y="380" as="targetPoint" />
          </mxGeometry>
        </mxCell>
        <mxCell id="XNwcV4RA-kQ3HEbMhBq7-28" value="eth0:&amp;nbsp;72.12.47.61&lt;span style=&quot;background-color: initial;&quot;&gt;/8&lt;/span&gt;" style="text;html=1;strokeColor=none;fillColor=none;align=left;verticalAlign=bottom;whiteSpace=wrap;rounded=0;fontSize=14;fontFamily=Courier New;" parent="1" vertex="1">
          <mxGeometry x="600" y="320" width="200" height="40" as="geometry" />
        </mxCell>
        <mxCell id="XNwcV4RA-kQ3HEbMhBq7-29" value="eth1: 64.157.174.45/8" style="text;html=1;strokeColor=none;fillColor=none;align=right;verticalAlign=bottom;whiteSpace=wrap;rounded=0;fontSize=14;fontFamily=Courier New;" parent="1" vertex="1">
          <mxGeometry x="200" y="240" width="200" height="40" as="geometry" />
        </mxCell>
        <mxCell id="XNwcV4RA-kQ3HEbMhBq7-30" value="eth2:&amp;nbsp;72.12.47.62&lt;span style=&quot;background-color: initial;&quot;&gt;/8&lt;/span&gt;" style="text;html=1;strokeColor=none;fillColor=none;align=left;verticalAlign=bottom;whiteSpace=wrap;rounded=0;fontSize=14;fontFamily=Courier New;" parent="1" vertex="1">
          <mxGeometry x="480" y="240" width="200" height="40" as="geometry" />
        </mxCell>
        <mxCell id="-nTu2CdU6KiDj-w8Ld9g-1" value="eth1: 210.21.37.1/24" style="text;html=1;strokeColor=none;fillColor=none;align=right;verticalAlign=top;whiteSpace=wrap;rounded=0;fontSize=14;fontFamily=Courier New;" vertex="1" parent="1">
          <mxGeometry y="380" width="200" height="40" as="geometry" />
        </mxCell>
        <mxCell id="-nTu2CdU6KiDj-w8Ld9g-2" value="eth1: 211.4.20.69/24" style="text;html=1;strokeColor=none;fillColor=none;align=left;verticalAlign=top;whiteSpace=wrap;rounded=0;fontSize=14;fontFamily=Courier New;" vertex="1" parent="1">
          <mxGeometry x="680" y="380" width="200" height="40" as="geometry" />
        </mxCell>
      </root>
    </mxGraphModel>
  </diagram>
</mxfile>
